<svg width="126" height="126" viewBox="0 0 126 126" fill="none" xmlns="http://www.w3.org/2000/svg"><path d="M96.753 35.072L82.306 17.587c-1.071-1.293-2.494-2.354-4.152-3.094a13.666 13.666 0 00-5.38-1.164L45.356 13H45.3c-14.155 0-25.015 1.984-32.01 11.664C6.778 33.675 4 49.025 4 75.99v3.295h8.987L7.202 104h8.016l5.786-24.715h2.663c6.424.048 12.612-2.023 17.23-5.765 4.174-3.346 7.184-7.924 8.707-13.238l.014-.048 6.746-27.084h-8.036L41.94 58.79c-1.945 6.73-7.761 13.904-18.274 13.904H11.88c.214-23.328 2.75-37.159 8.139-44.618 4.523-6.26 11.135-8.483 25.253-8.486l27.387.33c.627.007 1.242.14 1.794.387a3.8 3.8 0 011.384 1.032L92.18 41.114l21.953 3.065v3.493l-3.661 16.357c-1.08 4.828-2.927 7.26-10.501 8.022l-31.05 4.451L68.715 104h7.867l.164-21.933 24.264-3.48c5.497-.567 9.552-2.051 12.396-4.537 2.431-2.125 3.911-4.84 4.799-8.805L122 48.285v-9.688l-25.247-3.525z" fill="#fff"/></svg>